<svg width="18" height="18" viewBox="0 0 18 18" fill="none" xmlns="http://www.w3.org/2000/svg">
<path d="M11.5119 18.0004H6.48853C1.94237 18.0004 0 16.0581 0 11.5119V6.48853C0 1.94237 1.94237 0 6.48853 0H11.5119C16.0581 0 18.0004 1.94237 18.0004 6.48853V11.5119C18.0004 16.0581 16.0581 18.0004 11.5119 18.0004ZM6.48853 1.25584C2.6289 1.25584 1.25584 2.6289 1.25584 6.48853V11.5119C1.25584 15.3715 2.6289 16.7446 6.48853 16.7446H11.5119C15.3715 16.7446 16.7446 15.3715 16.7446 11.5119V6.48853C16.7446 2.6289 15.3715 1.25584 11.5119 1.25584H6.48853Z" fill="#BE9C91"/>
<path d="M6.48866 7.95633C5.21607 7.95633 4.18628 6.92653 4.18628 5.65394C4.18628 4.38136 5.21607 3.35156 6.48866 3.35156C7.76125 3.35156 8.79104 4.38136 8.79104 5.65394C8.79104 6.92653 7.76125 7.95633 6.48866 7.95633ZM6.48866 4.60741C5.91097 4.60741 5.44212 5.07626 5.44212 5.65394C5.44212 6.23163 5.91097 6.70048 6.48866 6.70048C7.06635 6.70048 7.5352 6.23163 7.5352 5.65394C7.5352 5.07626 7.06635 4.60741 6.48866 4.60741Z" fill="#BE9C91"/>
<path d="M1.18858 15.4439C0.987641 15.4439 0.786706 15.3434 0.669494 15.1676C0.476931 14.8829 0.552282 14.4894 0.845312 14.2969L4.97286 11.5256C5.87706 10.9145 7.12454 10.9898 7.94505 11.6847L8.22133 11.9275C8.63995 12.2875 9.35159 12.2875 9.76183 11.9275L13.2447 8.9386C14.1322 8.17672 15.5303 8.17672 16.4262 8.9386L17.7909 10.1107C18.0504 10.3368 18.0839 10.7303 17.8578 10.9982C17.6318 11.2577 17.2383 11.2912 16.9704 11.0652L15.6057 9.89304C15.1871 9.53303 14.4754 9.53303 14.0568 9.89304L10.5739 12.8819C9.68648 13.6438 8.28831 13.6438 7.39247 12.8819L7.11616 12.6392C6.73104 12.3126 6.09474 12.2791 5.66776 12.5722L1.54021 15.3434C1.43137 15.4104 1.30579 15.4439 1.18858 15.4439Z" fill="#BE9C91"/>
</svg>
