<svg width="31" height="23" viewBox="0 0 31 23" fill="none" xmlns="http://www.w3.org/2000/svg">
<path fill-rule="evenodd" clip-rule="evenodd" d="M17.4991 18.0517L23.7675 22.6636V17.8067L28.4102 20.7374V16.1511H31V6.97168H28.4102V2.15642L23.7675 5.11571V0.1875L17.4991 5.14876V18.0517ZM22.8356 20.8301V17.2184L22.8347 17.2179V5.71027L22.8356 5.70974V2.10577L18.423 5.59097V17.5832L22.8356 20.8301ZM27.4783 19.0594L23.7675 16.7156V6.21253L27.4783 3.8445V19.0594ZM7.23391 17.8073V22.6641L13.5023 18.0623V5.15734L7.23391 0.196082V5.1151L2.59215 2.15642V6.97168H0V16.1511H2.59215V20.7374L7.23391 17.8073ZM7.23391 6.21192V16.7081L3.5241 19.0513V3.8445L7.23391 6.21192ZM8.16586 17.219V20.8326L12.5784 17.5857V5.59955L8.16586 2.10426V2.10628V5.70913L8.16764 5.71027V17.2179L8.16586 17.219ZM0.93195 15.2303H2.55678V7.90052H0.93195V15.2303ZM30.068 15.2303H28.4432V7.90052H30.068V15.2303Z" fill="#18181B"/>
</svg>
